<svg xmlns="http://www.w3.org/2000/svg" width="17.614" height="17.614" viewBox="0 0 17.614 17.614">
  <path id="Icon_metro-hammer" data-name="Icon metro-hammer" d="M19.947,17.68,10.51,9.089l.439-.44a2.014,2.014,0,0,0,.583-1.3c.017-.008.034-.016.051-.025l1.772-1.108a.745.745,0,0,0-.039-.989L10.234,2.137A.74.74,0,0,0,9.248,2.1l-1.1,1.776c-.009.017-.017.034-.025.051a2,2,0,0,0-1.3.585L5.146,6.19a2.014,2.014,0,0,0-.583,1.3c-.017.008-.034.016-.051.025L2.74,8.624a.745.745,0,0,0,.039.989L5.86,12.7a.74.74,0,0,0,.986.039l1.1-1.776c.009-.016.017-.034.025-.051a2,2,0,0,0,1.3-.585l.487-.488L18.328,19.3a.591.591,0,0,0,.851.1l.866-.868A.6.6,0,0,0,19.947,17.68Z" transform="translate(-2.571 -1.928)" fill="#12a7c6"/>
</svg>
