<svg xmlns="http://www.w3.org/2000/svg" xmlns:xlink="http://www.w3.org/1999/xlink" width="73.165" height="69.507" viewBox="0 0 73.165 69.507"><defs><linearGradient id="a" y1="0.5" x2="1" y2="0.5" gradientUnits="objectBoundingBox"><stop offset="0" stop-color="#32bdef"/><stop offset="1" stop-color="#1ea2e4"/></linearGradient><linearGradient id="b" x1="0.503" y1="0.002" x2="0.498" y2="1.134" gradientUnits="objectBoundingBox"><stop offset="0" stop-color="#007ccf"/><stop offset="0.317" stop-color="#0074c7"/><stop offset="0.818" stop-color="#005eb0"/><stop offset="1" stop-color="#0055a6"/></linearGradient><linearGradient id="c" x1="0.5" y1="-0.009" x2="0.5" y2="1.01" xlink:href="#a"/></defs><g transform="translate(-7.316 -9.146)"><path d="M45.871,74.992A5.624,5.624,0,0,1,44.08,74.7L30.9,70.255a5.627,5.627,0,0,1-3.528-7.119l1.749-5.189,3.466,1.169L30.833,64.3a1.963,1.963,0,0,0,1.233,2.484l13.182,4.443A1.959,1.959,0,0,0,47.733,70l1.749-5.189,3.466,1.169L51.2,71.169A5.625,5.625,0,0,1,45.871,74.992Z" fill="url(#a)"/><path d="M12.8,33.23V54.568l62.19,21.34V11.889Z" fill="url(#b)"/><path d="M77.738,78.652h0a2.745,2.745,0,0,0,2.744-2.744V11.889a2.745,2.745,0,0,0-2.744-2.744h0a2.745,2.745,0,0,0-2.744,2.744V75.908A2.745,2.745,0,0,0,77.738,78.652Z" fill="url(#c)"/><path d="M10.06,56.7h0A2.745,2.745,0,0,0,12.8,53.959V33.839A2.745,2.745,0,0,0,10.06,31.1h0a2.745,2.745,0,0,0-2.744,2.744v20.12A2.745,2.745,0,0,0,10.06,56.7Z" fill="url(#c)"/></g></svg>