<svg xmlns="http://www.w3.org/2000/svg" width="77.684" height="69.507" viewBox="0 0 77.684 69.507"><g transform="translate(-2.044 -8.177)"><path d="M74.617,76.149C48.763,65.575,13.572,64.514,7.155,64.408V21.465H74.617Z" fill="#b6dcfe"/><path d="M73.6,22.487v52.15c-25-9.8-57.008-11.074-65.418-11.24V22.487H73.6m2.044-2.044H6.133V65.418s40.886,0,69.507,12.266V20.443Z" fill="#4788c7"/><path d="M76.662,64.159c-26.02-5.33-64.784-5.843-71.551-5.892V15.332H76.662Z" fill="#b6dcfe"/><path d="M75.64,16.354V62.912c-24.975-4.9-60.651-5.567-69.507-5.657v-40.9H75.64m2.044-2.044H4.089V59.285s44.975,0,73.6,6.133V14.31Z" fill="#4788c7"/><path d="M3.066,9.2H78.706V52.13H3.066Z" fill="#b6dcfe"/><path d="M77.684,10.222V51.108H4.089V10.222h73.6m2.044-2.044H2.044V53.152H79.728V8.177Z" fill="#4788c7"/><path d="M40.886,16.354A14.31,14.31,0,1,0,55.2,30.665a14.31,14.31,0,0,0-14.31-14.31Zm26.576,8.177A6.133,6.133,0,1,0,73.6,30.665,6.133,6.133,0,0,0,67.462,24.532Zm-53.152,0a6.133,6.133,0,1,0,6.133,6.133,6.133,6.133,0,0,0-6.133-6.133Z" fill="#fff"/></g></svg>