<svg xmlns="http://www.w3.org/2000/svg" width="102.605" height="72.816" viewBox="0 0 102.605 72.816"><g transform="translate(-1 -10)"><path d="M101.3,17.62V73.887a6.618,6.618,0,0,1-6.62,6.62H8.62A6.618,6.618,0,0,1,2,73.887V17.62A6.618,6.618,0,0,1,8.62,11H94.675A6.618,6.618,0,0,1,101.3,17.62Z" transform="translate(0.655 0.655)" fill="#faefde"/><path d="M101.3,17.62v1.655H2V17.62A6.618,6.618,0,0,1,8.62,11H94.675A6.618,6.618,0,0,1,101.3,17.62Z" transform="translate(0.655 0.655)" fill="#fff7f0"/><path d="M101.3,48.827h0a7.448,7.448,0,0,1-7.447,7.447H9.447A7.448,7.448,0,0,1,2,48.827H2A.828.828,0,0,1,2.827,48h97.64A.828.828,0,0,1,101.3,48.827Z" transform="translate(0.655 24.887)" fill="#efd8be"/><path d="M95.33,10H9.275A8.284,8.284,0,0,0,1,18.275V74.542a8.284,8.284,0,0,0,8.275,8.275H95.33a8.284,8.284,0,0,0,8.275-8.275V18.275A8.284,8.284,0,0,0,95.33,10ZM100.3,74.542a4.971,4.971,0,0,1-4.965,4.965H9.275A4.971,4.971,0,0,1,4.31,74.542V18.275A4.971,4.971,0,0,1,9.275,13.31H95.33a4.971,4.971,0,0,1,4.965,4.965Z" fill="#12a7c6"/><path d="M15.93,20.62a1.654,1.654,0,0,0,1.655-1.655v-3.31a1.655,1.655,0,1,0-3.31,0v3.31A1.654,1.654,0,0,0,15.93,20.62Zm8.275,0a1.654,1.654,0,0,0,1.655-1.655v-3.31a1.655,1.655,0,0,0-3.31,0v3.31A1.654,1.654,0,0,0,24.2,20.62Zm8.275,0a1.654,1.654,0,0,0,1.655-1.655v-3.31a1.655,1.655,0,0,0-3.31,0v3.31A1.654,1.654,0,0,0,32.479,20.62Zm8.275,0a1.654,1.654,0,0,0,1.655-1.655v-3.31a1.655,1.655,0,1,0-3.31,0v3.31A1.654,1.654,0,0,0,40.753,20.62Zm-33.1,0A1.654,1.654,0,0,0,9.31,18.965v-3.31a1.655,1.655,0,1,0-3.31,0v3.31A1.654,1.654,0,0,0,7.655,20.62Zm49.648,0a1.654,1.654,0,0,0,1.655-1.655v-3.31a1.655,1.655,0,1,0-3.31,0v3.31A1.654,1.654,0,0,0,57.3,20.62Zm8.275,0a1.654,1.654,0,0,0,1.655-1.655v-3.31a1.655,1.655,0,1,0-3.31,0v3.31A1.654,1.654,0,0,0,65.577,20.62Zm8.275,0a1.654,1.654,0,0,0,1.655-1.655v-3.31a1.655,1.655,0,1,0-3.31,0v3.31A1.654,1.654,0,0,0,73.852,20.62Zm8.275,0a1.654,1.654,0,0,0,1.655-1.655v-3.31a1.655,1.655,0,1,0-3.31,0v3.31A1.654,1.654,0,0,0,82.126,20.62ZM90.4,14a1.654,1.654,0,0,0-1.655,1.655v3.31a1.655,1.655,0,1,0,3.31,0v-3.31A1.654,1.654,0,0,0,90.4,14ZM49.028,20.62a1.654,1.654,0,0,0,1.655-1.655v-3.31a1.655,1.655,0,0,0-3.31,0v3.31A1.654,1.654,0,0,0,49.028,20.62ZM15.93,66.957a1.654,1.654,0,0,0-1.655,1.655v3.31a1.655,1.655,0,1,0,3.31,0v-3.31A1.654,1.654,0,0,0,15.93,66.957Zm8.275,0a1.654,1.654,0,0,0-1.655,1.655v3.31a1.655,1.655,0,1,0,3.31,0v-3.31A1.654,1.654,0,0,0,24.2,66.957Zm8.275,0a1.654,1.654,0,0,0-1.655,1.655v3.31a1.655,1.655,0,1,0,3.31,0v-3.31A1.654,1.654,0,0,0,32.479,66.957Zm8.275,0A1.654,1.654,0,0,0,39.1,68.612v3.31a1.655,1.655,0,1,0,3.31,0v-3.31A1.654,1.654,0,0,0,40.753,66.957Zm-33.1,0A1.654,1.654,0,0,0,6,68.612v3.31a1.655,1.655,0,1,0,3.31,0v-3.31A1.654,1.654,0,0,0,7.655,66.957Zm49.648,0a1.654,1.654,0,0,0-1.655,1.655v3.31a1.655,1.655,0,1,0,3.31,0v-3.31A1.654,1.654,0,0,0,57.3,66.957Zm8.275,0a1.654,1.654,0,0,0-1.655,1.655v3.31a1.655,1.655,0,1,0,3.31,0v-3.31A1.654,1.654,0,0,0,65.577,66.957Zm8.275,0A1.654,1.654,0,0,0,72.2,68.612v3.31a1.655,1.655,0,1,0,3.31,0v-3.31A1.654,1.654,0,0,0,73.852,66.957Zm8.275,0a1.654,1.654,0,0,0-1.655,1.655v3.31a1.655,1.655,0,1,0,3.31,0v-3.31A1.654,1.654,0,0,0,82.126,66.957Zm8.275,0a1.654,1.654,0,0,0-1.655,1.655v3.31a1.655,1.655,0,1,0,3.31,0v-3.31A1.654,1.654,0,0,0,90.4,66.957Zm-41.373,0a1.654,1.654,0,0,0-1.655,1.655v3.31a1.655,1.655,0,1,0,3.31,0v-3.31A1.654,1.654,0,0,0,49.028,66.957Z" transform="translate(3.275 2.62)"/><path d="M47.666,47.561C46.193,40.412,37.736,35,27.807,35S9.6,40.428,8.08,47.594a1.511,1.511,0,0,0,.3.579H47.219S47.666,47.759,47.666,47.561Z" transform="translate(4.637 16.373)" fill="#12a7c6"/><path d="M23.651,22h0a9.267,9.267,0,0,1,9.268,9.268v6.289a9.267,9.267,0,0,1-9.268,9.268h0a9.267,9.267,0,0,1-9.268-9.268V31.268A9.267,9.267,0,0,1,23.651,22Z" transform="translate(8.765 7.859)" fill="#f9e3ae"/><path d="M48.393,57.408a1.655,1.655,0,0,0,1.489-2.367,21.88,21.88,0,0,0-12.23-11.32,14.422,14.422,0,0,0,2.466-7.828v-3.31a11.584,11.584,0,0,0-23.169,0v3.31a14.427,14.427,0,0,0,2.466,7.811A21.877,21.877,0,0,0,7.186,55.042a1.655,1.655,0,1,0,2.878,1.637,1.686,1.686,0,0,0,.1-.213A18.433,18.433,0,0,1,21.751,46.42a10.21,10.21,0,0,0,6.785,2.714A10.217,10.217,0,0,0,35.3,46.42,18.415,18.415,0,0,1,46.889,56.465,1.649,1.649,0,0,0,48.393,57.408ZM20.26,35.894v-3.31a8.275,8.275,0,0,1,16.549,0v3.31c0,4.5-3.69,9.93-8.275,9.93S20.26,40.4,20.26,35.894ZM58.323,30.93H74.872a1.655,1.655,0,0,0,0-3.31H58.323a1.655,1.655,0,0,0,0,3.31ZM78.182,47.479H58.323a1.655,1.655,0,0,0,0,3.31H78.182a1.655,1.655,0,0,0,0-3.31Zm9.93-19.859h-6.62a1.655,1.655,0,1,0,0,3.31h6.62a1.655,1.655,0,1,0,0-3.31Zm0,9.93H58.323a1.655,1.655,0,0,0,0,3.31H88.111a1.655,1.655,0,1,0,0-3.31Z" transform="translate(3.909 7.204)" fill="#18424a"/></g></svg>