<?xml version="1.0" encoding="utf-8"?>
<!-- Generator: Adobe Illustrator 25.2.3, SVG Export Plug-In . SVG Version: 6.00 Build 0)  -->
<svg version="1.1" id="Layer_1" xmlns="http://www.w3.org/2000/svg" xmlns:xlink="http://www.w3.org/1999/xlink" x="0px" y="0px"
	 viewBox="0 0 500 109" style="enable-background:new 0 0 500 109;" xml:space="preserve">
<style type="text/css">
	.st0{fill:#F3F3F3;}
</style>
<g>
	<g>
		<g>
			<path class="st0" d="M341.1,76.5h-3.9V15.7h3.9V76.5z"/>
			<path class="st0" d="M351.9,57.4c0.2,4.4,2,8.1,5.2,11.3c3.2,3.2,7,4.8,11.3,4.8c1.7,0,3.3-0.2,4.9-0.7c1.6-0.5,2.9-1.1,4-1.8
				c1-0.7,2-1.5,2.7-2.2c0.8-0.7,1.4-1.3,1.8-1.8l0.5-0.8l2.6,2.5c-0.2,0.2-0.4,0.5-0.7,1c-0.3,0.4-1,1.1-2,2.1s-2.1,1.8-3.3,2.6
				c-1.2,0.7-2.7,1.4-4.6,2.1c-1.9,0.6-3.9,1-5.9,1c-5.5,0-10.3-2.1-14.3-6.3c-4-4.2-6.1-9.4-6.1-15.4c0-6,2-11.1,6-15.3
				c4-4.3,8.7-6.4,14-6.4c5.3,0,9.8,2,13.6,6.1c3.7,4.1,5.6,9.3,5.6,15.6v1.7H351.9z M357.1,42.6c-3.2,3.1-4.9,6.8-5.2,10.9h31.3
				c-0.2-4.5-1.8-8.3-4.7-11.2c-2.9-2.9-6.4-4.4-10.6-4.4C363.9,37.9,360.2,39.4,357.1,42.6z"/>
			<path class="st0" d="M418.8,50.5c0-3.6-1.1-6.6-3.4-9c-2.2-2.4-5-3.6-8.4-3.6c-2.3,0-4.4,0.5-6.4,1.5c-2,1-3.5,2-4.4,3.1
				l-1.3,1.5l-2.6-2.6c0.2-0.2,0.4-0.4,0.7-0.8c0.3-0.4,0.9-1,1.8-1.8c0.9-0.8,2-1.6,3-2.3c1.1-0.7,2.5-1.3,4.1-1.8
				c1.7-0.5,3.4-0.8,5.1-0.8c4.5,0,8.2,1.6,11.2,4.8c3,3.2,4.5,7.1,4.5,11.8v26h-3.9v-7c-0.1,0.2-0.3,0.5-0.6,0.9
				c-0.3,0.4-0.9,1-1.8,1.9c-0.9,0.9-1.9,1.7-3,2.4c-1.1,0.7-2.5,1.3-4.3,1.9c-1.8,0.5-3.6,0.8-5.6,0.8c-4,0-7.3-1.2-9.9-3.5
				c-2.6-2.3-3.9-5.1-3.9-8.2c0-3.3,1.1-6,3.4-8.3c2.3-2.3,5.3-3.7,9.2-4.3L418.8,50.5z M414.5,69.1c2.9-2.9,4.3-6.5,4.3-10.9v-3.9
				L403.1,57c-6.4,1-9.5,3.9-9.5,8.7c0,2.1,0.9,3.9,2.8,5.5c1.9,1.6,4.3,2.3,7.1,2.3C407.9,73.5,411.6,72,414.5,69.1z"/>
			<path class="st0" d="M453.1,43.1c-0.1-0.1-0.3-0.3-0.4-0.6s-0.6-0.7-1.2-1.3c-0.6-0.6-1.3-1.1-2-1.6c-0.7-0.5-1.6-0.9-2.8-1.3
				c-1.2-0.4-2.3-0.6-3.6-0.6c-2.9,0-5.2,0.7-6.9,2.2c-1.7,1.4-2.6,3.2-2.6,5.2c0,1.8,0.8,3.3,2.5,4.4c1.7,1.2,3.6,2.1,6,2.7
				c2.3,0.6,4.7,1.4,7,2.2c2.3,0.8,4.3,2.1,6,3.7s2.5,3.8,2.5,6.5c0,3.6-1.3,6.6-4,9c-2.7,2.4-6.3,3.6-10.7,3.6
				c-1.8,0-3.5-0.2-5.2-0.7s-3-1-4.2-1.7c-1.1-0.7-2.1-1.4-3-2.1c-0.8-0.7-1.5-1.3-1.9-1.7l-0.6-0.7l3-3.1c0.3,0.5,0.8,1,1.4,1.7
				s1.9,1.6,4,2.7c2,1.1,4.1,1.7,6.3,1.7c3.4,0,6-0.8,8-2.5c1.9-1.6,2.9-3.7,2.9-6.2c0-1.9-0.8-3.5-2.5-4.7c-1.7-1.2-3.7-2.1-6-2.8
				c-2.3-0.7-4.7-1.4-7-2.2c-2.3-0.8-4.3-2-5.9-3.6c-1.6-1.7-2.5-3.8-2.5-6.3c0-2.9,1.3-5.6,3.9-7.9c2.6-2.3,5.8-3.5,9.5-3.5
				c2.4,0,4.7,0.5,6.9,1.5c2.2,1,3.8,2,4.8,3l1.4,1.6L453.1,43.1z"/>
			<path class="st0" d="M464.8,57.4c0.2,4.4,2,8.1,5.2,11.3c3.2,3.2,7,4.8,11.3,4.8c1.7,0,3.3-0.2,4.9-0.7c1.6-0.5,2.9-1.1,4-1.8
				c1-0.7,2-1.5,2.7-2.2c0.8-0.7,1.4-1.3,1.8-1.8l0.5-0.8l2.6,2.5c-0.2,0.2-0.4,0.5-0.7,1c-0.3,0.4-1,1.1-2,2.1s-2.1,1.8-3.3,2.6
				c-1.2,0.7-2.7,1.4-4.6,2.1c-1.9,0.6-3.9,1-5.9,1c-5.5,0-10.3-2.1-14.3-6.3c-4-4.2-6.1-9.4-6.1-15.4c0-6,2-11.1,6-15.3
				c4-4.3,8.7-6.4,14-6.4c5.3,0,9.8,2,13.6,6.1c3.7,4.1,5.6,9.3,5.6,15.6v1.7H464.8z M469.9,42.6c-3.2,3.1-4.9,6.8-5.2,10.9h31.3
				c-0.2-4.5-1.8-8.3-4.7-11.2c-2.9-2.9-6.4-4.4-10.6-4.4C476.8,37.9,473.1,39.4,469.9,42.6z"/>
		</g>
		<path class="st0" d="M181.4,57.2c1,5.4,3.8,9.3,8.7,11.3c7.2,2.9,13.3,0.5,18.3-4.8c1.6,1.6,3.2,3.2,4.8,4.8
			c-1.2,1.7-2.8,3.2-4.6,4.4c-11.4,7.7-28.3,4.1-33.8-10.2c-4.7-12.1,1.7-26.6,15.3-29.7c13.8-3.1,26.2,6.8,25.4,21.6
			c-0.2,2.7-0.2,2.7-2.9,2.7c-10,0-20,0-30,0C182.3,57.2,181.9,57.2,181.4,57.2z M207.9,50.5c-1.2-6.5-6.7-11.6-14.4-11
			c-6,0.4-12.2,6.2-11.9,11C190.4,50.5,199.1,50.5,207.9,50.5z"/>
		<path class="st0" d="M315.5,75.8c-2.6,0-5,0-7.5,0c0-1.8,0-3.5,0-5.6c-0.5,0.5-0.8,0.9-1.1,1.2c-5.4,5.8-15,7.1-21.7,2.8
			c-4.2-2.7-6.1-6.5-5.6-11.5c0.5-5.1,3.3-8.5,8.1-10.2c2.5-0.9,5.2-1.3,7.8-1.8c4.1-0.7,8.2-1.4,12.4-2.1c0.2-1.6-0.2-3-0.9-4.4
			c-1.9-3.7-6-5.6-10.4-4.9c-3.6,0.6-6.6,2.4-9.2,4.9c-0.2,0.2-0.4,0.5-0.6,0.8c-1.7-1.7-3.3-3.3-4.9-4.9c0-0.1,0.1-0.2,0.1-0.3
			c5.4-6.9,15.8-9.7,23.8-6.1c6.2,2.8,9.5,7.8,9.6,14.5c0.2,8.6,0,17.3,0,25.9C315.5,74.8,315.5,75.2,315.5,75.8z M307.8,55.1
			c-0.1,0-0.1,0-0.2,0c-4.6,0.7-9.2,1.4-13.8,2.3c-1.4,0.3-2.9,0.9-4.1,1.7c-2,1.3-3,3.3-2.6,5.8c0.4,2.4,1.9,4,4.2,4.7
			c3.5,1.1,6.9,0.7,10.1-1.1C306.1,65.8,308.6,60.2,307.8,55.1z"/>
		<path class="st0" d="M248.1,38c-1.8,1.8-3.5,3.5-5.3,5.3c-2.1-2.1-4.6-3.3-7.5-3.8c-2.1-0.3-4.3-0.2-6.3,0.7
			c-1.5,0.8-2.5,2-2.6,3.8c-0.1,1.7,0.6,3.1,2.2,3.7c2.8,1.2,5.6,2.3,8.4,3.4c2.1,0.9,4.3,1.6,6.3,2.7c8.6,5,7,16.4-0.4,20.4
			c-2.9,1.6-6,2.3-9.3,2.4c-6.2,0.1-11.5-2-15.8-6.6c-0.2-0.3-0.5-0.6-0.8-0.9c1.6-1.8,3.2-3.5,4.8-5.3c0.4,0.5,0.7,0.8,1,1.2
			c3.7,4.1,9.9,5.7,14.8,3.8c1.7-0.7,2.9-1.8,3.5-3.6c0.7-2,0.1-4-1.7-4.9c-2.3-1.3-4.8-2.2-7.3-3.2c-2.4-1-4.9-1.8-7.2-2.9
			c-2.7-1.4-4.9-3.4-5.8-6.5c-1.6-5.3,0.7-10.5,5.8-13.3c5.2-2.8,10.6-2.7,16-0.7c2.2,0.8,4.3,1.9,6.1,3.5c0.2,0.2,0.4,0.4,0.6,0.6
			C248.1,37.9,248.1,38,248.1,38z"/>
		<path class="st0" d="M133.6,33.2c2.6,0,5,0,7.5,0c0.3,0,0.6,0.4,0.7,0.8c2.8,7,5.5,13.9,8.2,20.9c1.3,3.4,2.7,6.8,4,10.2
			c0.1,0.2,0.2,0.4,0.4,0.9c0.5-1.4,1-2.6,1.5-3.8c3.7-9.4,7.4-18.8,11-28.2c0.2-0.6,0.5-0.9,1.2-0.9c2.3,0,4.6,0,7.1,0
			c-0.7,1.9-1.4,3.7-2.1,5.4c-4.8,12.1-9.6,24.2-14.4,36.3c-0.3,0.6-0.5,0.9-1.3,0.9c-2.1-0.1-4.1,0-6.2,0c-0.7,0-1-0.2-1.2-0.8
			c-5.4-13.7-10.8-27.3-16.2-40.9C133.8,33.9,133.7,33.6,133.6,33.2z"/>
		<path class="st0" d="M277.2,68.4c0,0.4,0.1,0.7,0.1,1.1c0,1.5-0.1,3.1,0,4.6c0.1,1-0.2,1.6-1.3,1.9c-4.2,1.2-8.3,1.2-12.3-0.8
			c-3.1-1.6-4.7-4.4-5.3-7.7c-0.2-1.4-0.4-2.8-0.4-4.3c0-7.2,0-14.4,0-21.6c0-0.4,0-0.8,0-1.3c-2.7,0-5.3,0-7.9,0c0-2.4,0-4.7,0-7.1
			c1.4,0,2.8,0,4.2,0c3,0,4.1-1.1,4.2-4.1c0-3,0-6.1,0-9.1c0-0.7,0.2-1.1,1-1c1.7,0.1,3.5,0.1,5.2,0c0.8,0,1,0.3,1,1
			c0,4,0,7.9,0,11.9c0,0.4,0,0.8,0,1.3c3.3,0,6.4,0,9.7,0c0,2.4,0,4.7,0,7.1c-3.2,0-6.4,0-9.7,0c0,0.5,0,0.8,0,1.1
			c0,7.1,0,14.2,0,21.3c0,0.8,0.1,1.6,0.2,2.4c0.5,2.8,2.4,4.5,5.3,4.5c1.7,0,3.4-0.5,5.1-0.8C276.6,68.7,276.8,68.6,277.2,68.4z"/>
	</g>
	<path class="st0" d="M102.7,32.8c-1-12.6-5.4-22.7-14.6-28.9c-4.7-3.2-9.9-4.3-15.2-3.8C66.4,0.7,61,3.5,56.7,8.5
		c-0.1,0.1-0.2,0.3-0.1,0.5c0,0,0.1,0.3,0.4,0.4c0,0,0,0,0,0c11.4,2.7,19.8,13.3,19.8,26c0,14.7-11.4,26.6-25.4,26.6
		c0,0-0.1,0-0.1,0c0,0-0.1,0-0.1,0c-14,0-25.4-11.9-25.4-26.6c0-12.7,8.5-23.4,19.8-26c0,0,0,0,0,0C46.1,9.3,46.2,9,46.2,9
		c0.1-0.3,0-0.5-0.1-0.5c-4.3-5-9.7-7.8-16.1-8.4c-5.3-0.5-10.5,0.7-15.2,3.8C5.5,10.1,1.1,20.2,0.1,32.8c-0.6,7.1,0.7,13.8,3,20.2
		c3.2,8.7,7.8,16.1,13.1,22.9C26.4,88.7,38,99,50.4,108c0.4,0.3,0.7,0.4,1,0.4c0.3,0,0.7-0.1,1-0.4c12.4-8.9,24-19.2,34.1-32.1
		c5.3-6.8,10-14.2,13.1-22.9C102,46.6,103.3,39.9,102.7,32.8z"/>
</g>
</svg>
